<svg width="80" height="80" xmlns="http://www.w3.org/2000/svg" xmlns:xlink="http://www.w3.org/1999/xlink" xml:space="preserve" overflow="hidden"><g transform="translate(-733 -193)"><path d="M759.46 202.44C750 202.44 742.3 210.14 742.3 219.6 742.3 227.09 747.1 233.65 754.23 235.93L754.32 235.96 754.32 238.78 751.62 241.48C751.33 241.77 751.33 242.25 751.62 242.54L754.32 245.24 754.32 247.56 751.62 250.26C751.48 250.4 751.4 250.59 751.4 250.79 751.4 250.99 751.48 251.18 751.62 251.32L754.32 254.02 754.32 258.45C754.32 258.65 754.4 258.85 754.55 258.99L758.93 263.24C759.21 263.51 759.69 263.51 759.97 263.24L764.46 258.99C764.61 258.85 764.69 258.65 764.69 258.45L764.69 235.93 764.78 235.9C771.86 233.59 776.61 227.04 776.61 219.6 776.61 210.14 768.91 202.44 759.45 202.44ZM759.46 261.65 759.37 261.56 755.82 258.12 755.82 253.7C755.82 253.5 755.74 253.31 755.6 253.17L753.21 250.78 755.6 248.39C755.74 248.25 755.82 248.06 755.82 247.86L755.82 244.92C755.82 244.72 755.74 244.53 755.6 244.39L753.21 242 755.6 239.61C755.74 239.47 755.82 239.28 755.82 239.08L755.82 235.39C755.82 235.05 755.59 234.76 755.27 234.67 748.51 232.8 743.79 226.6 743.79 219.6 743.79 210.97 750.81 203.94 759.45 203.94 768.09 203.94 775.11 210.96 775.11 219.6 775.11 226.56 770.43 232.75 763.73 234.65L763.73 234.65C763.41 234.74 763.19 235.04 763.19 235.37L763.19 258.12 763.15 258.16 759.46 261.66Z" fill="#0D274D"/><path d="M780.09 238.7 782.09 240.7 782.09 244.51C782.09 244.92 782.43 245.26 782.84 245.26L786.66 245.26 788.3 246.9 788.3 250.72C788.3 251.13 788.64 251.47 789.05 251.47L792.87 251.47 792.91 251.51 796 254.6C796.14 254.74 796.33 254.82 796.53 254.82L802.65 254.73C803.05 254.73 803.38 254.4 803.39 254L803.56 247.82C803.56 247.61 803.48 247.41 803.34 247.27L787.42 231.35 787.46 231.27C790.83 224.63 789.56 216.64 784.3 211.38 782.03 209.1 779.17 207.52 776.05 206.8 775.65 206.71 775.24 206.96 775.15 207.36 775.06 207.76 775.31 208.17 775.71 208.26 778.56 208.92 781.16 210.36 783.24 212.44 788.16 217.36 789.23 225.04 785.84 231.12 785.68 231.41 785.73 231.78 785.96 232.02L802.05 248.11 802.05 248.17 801.91 253.25 796.84 253.33 796.8 253.29 793.71 250.2C793.57 250.06 793.38 249.98 793.18 249.98L789.8 249.98 789.8 246.6C789.8 246.4 789.72 246.21 789.58 246.07L787.5 243.99C787.36 243.85 787.17 243.77 786.97 243.77L783.59 243.77 783.59 240.39C783.59 240.19 783.51 240 783.37 239.86L780.76 237.25C780.52 237.01 780.15 236.96 779.86 237.13 775.86 239.39 771.09 239.79 766.77 238.22 766.38 238.08 765.95 238.28 765.81 238.67 765.67 239.06 765.87 239.49 766.26 239.63 770.76 241.27 775.77 240.95 780.01 238.76L780.09 238.72Z" fill="#0D274D"/><path d="M751.36 218.25 751.35 218.25C751.15 218.25 750.96 218.33 750.82 218.48 750.68 218.63 750.61 218.81 750.61 219.01 750.61 219.21 750.69 219.4 750.84 219.54L756.95 225.49C757.24 225.77 757.73 225.76 758.01 225.48L768.01 215.24C768.3 214.94 768.29 214.47 768 214.18 767.7 213.89 767.23 213.9 766.94 214.19L757.47 223.9 757.38 223.81 751.89 218.47C751.75 218.33 751.56 218.26 751.37 218.26Z" fill="#0D274D"/></g></svg>