<svg width="80" height="80" xmlns="http://www.w3.org/2000/svg" xmlns:xlink="http://www.w3.org/1999/xlink" xml:space="preserve" overflow="hidden"><g transform="translate(-332 -364)"><path d="M390.64 391.93C384.23 391.93 378.99 396.95 378.6 403.25L372.99 403.25C372.62 400.56 370.32 398.48 367.53 398.48 366.47 398.48 365.48 398.79 364.64 399.3L350.82 382.49C351.73 381.51 352.29 380.2 352.29 378.75 352.29 375.71 349.82 373.23 346.78 373.23 343.74 373.23 341.26 375.7 341.26 378.75 341.26 381.54 343.34 383.84 346.03 384.21L346.03 398.53C343.34 398.9 341.26 401.2 341.26 403.99 341.26 406.78 343.34 409.08 346.03 409.45L346.03 423.77C343.34 424.14 341.26 426.44 341.26 429.23 341.26 432.27 343.73 434.75 346.78 434.75 349.83 434.75 352.29 432.28 352.29 429.23 352.29 427.79 351.73 426.48 350.82 425.49L364.64 408.68C365.48 409.2 366.47 409.5 367.53 409.5 370.32 409.5 372.62 407.42 372.99 404.73L378.6 404.73C378.99 411.04 384.23 416.05 390.64 416.05 397.05 416.05 402.71 410.63 402.71 403.98 402.71 397.33 397.29 391.91 390.64 391.91ZM347.53 423.78 347.53 409.46C350.22 409.09 352.29 406.79 352.29 404 352.29 401.21 350.21 398.91 347.53 398.54L347.53 384.22C348.31 384.11 349.03 383.85 349.67 383.45L363.49 400.26C362.58 401.24 362.02 402.55 362.02 404 362.02 405.45 362.58 406.75 363.49 407.74L349.67 424.55C349.03 424.16 348.31 423.89 347.53 423.78ZM342.77 378.77C342.77 376.56 344.57 374.75 346.79 374.75 349.01 374.75 350.8 376.55 350.8 378.77 350.8 380.99 349 382.78 346.79 382.78 344.58 382.78 342.77 380.98 342.77 378.77ZM342.77 404C342.77 401.79 344.57 399.98 346.79 399.98 349.01 399.98 350.8 401.78 350.8 404 350.8 406.22 349 408.02 346.79 408.02 344.58 408.02 342.77 406.22 342.77 404ZM346.79 433.25C344.58 433.25 342.77 431.45 342.77 429.23 342.77 427.01 344.57 425.22 346.79 425.22 349.01 425.22 350.8 427.02 350.8 429.23 350.8 431.44 349 433.25 346.79 433.25ZM367.54 408.02C365.33 408.02 363.52 406.22 363.52 404 363.52 401.78 365.32 399.98 367.54 399.98 369.76 399.98 371.55 401.78 371.55 404 371.55 406.22 369.75 408.02 367.54 408.02ZM390.65 414.58C384.82 414.58 380.07 409.84 380.07 404.01 380.07 398.18 384.81 393.44 390.65 393.44 396.49 393.44 401.22 398.18 401.22 404.01 401.22 409.84 396.48 414.58 390.65 414.58Z" fill="#0D274D"/><path d="M395.93 399.71 389.07 406.68 385.09 402.92C384.79 402.63 384.31 402.65 384.03 402.95 383.74 403.25 383.76 403.73 384.06 404.01L388.57 408.27C388.62 408.32 388.68 408.35 388.74 408.38 388.76 408.39 388.78 408.41 388.81 408.42 388.9 408.46 388.99 408.47 389.09 408.47 389.19 408.47 389.29 408.45 389.38 408.41 389.41 408.4 389.43 408.37 389.46 408.36 389.52 408.33 389.58 408.3 389.63 408.25L397.01 400.75C397.3 400.45 397.3 399.98 397.01 399.69 396.72 399.4 396.24 399.4 395.95 399.69Z" fill="#0D274D"/></g></svg>