<svg width="80" height="80" xmlns="http://www.w3.org/2000/svg" xmlns:xlink="http://www.w3.org/1999/xlink" xml:space="preserve" overflow="hidden"><g transform="translate(-64 -535)"><path d="M103.71 569.73C104.17 569.73 104.62 569.85 105.02 570.08L116.91 577.01C117.41 577.26 118.05 577.16 118.47 576.76 118.89 576.35 119.01 575.74 118.77 575.2L105.34 545.44C105.04 544.78 104.41 544.37 103.69 544.37 102.95 544.37 102.31 544.79 102.02 545.47L89.2 575.2C88.97 575.74 89.09 576.35 89.53 576.75L89.53 576.75C89.97 577.16 90.59 577.23 91.16 576.94L102.35 570.11C102.76 569.86 103.23 569.73 103.71 569.73ZM88.63 556.69C88.47 556.69 88.32 556.74 88.19 556.83 81.2 561.9 77.02 570.06 77.02 578.65 77.02 593.52 89.12 605.62 103.99 605.62 118.86 605.62 130.96 593.52 130.96 578.65 130.96 570.06 126.79 561.9 119.79 556.83 119.45 556.59 118.98 556.66 118.74 557 118.62 557.16 118.57 557.36 118.61 557.56 118.64 557.76 118.75 557.93 118.91 558.05 125.52 562.84 129.46 570.55 129.46 578.66 129.46 592.7 118.03 604.13 103.99 604.13 89.95 604.13 78.52 592.7 78.52 578.66 78.52 570.55 82.46 562.84 89.07 558.05 89.23 557.93 89.34 557.76 89.37 557.56 89.4 557.36 89.35 557.16 89.24 557 89.1 556.81 88.87 556.69 88.63 556.69ZM103.98 546.06 117.26 575.48 116.86 575.25 105.78 568.79C104.5 568.04 102.84 568.06 101.57 568.83L90.74 575.45 90.92 575.03 103.41 546.06C103.46 545.94 103.57 545.87 103.7 545.87 103.83 545.87 103.93 545.94 103.99 546.06Z" fill="#0D274D"/></g></svg>