<svg width="80" height="80" xmlns="http://www.w3.org/2000/svg" xmlns:xlink="http://www.w3.org/1999/xlink" xml:space="preserve" overflow="hidden"><g transform="translate(-736 -535)"><path d="M754.34 588.32C751.64 588.32 749.45 590.51 749.45 593.21 749.45 595.91 751.64 598.1 754.34 598.1 757.04 598.1 759.23 595.91 759.23 593.21 759.23 590.51 757.04 588.32 754.34 588.32ZM754.34 596.6C752.47 596.6 750.95 595.08 750.95 593.21 750.95 591.34 752.47 589.82 754.34 589.82 756.21 589.82 757.73 591.34 757.73 593.21 757.73 595.08 756.21 596.6 754.34 596.6Z" fill="#0D274D"/><path d="M801.86 553.7C800.29 553.7 798.9 554.46 798 555.62 795.46 555.15 792.25 554.77 788.67 554.52 785.54 552.86 781.98 551.91 778.2 551.91 774.42 551.91 770.78 552.88 767.62 554.57 755.09 555.5 752.45 557.44 752.45 558.91 752.45 559.84 753.2 561.17 759.33 562.27 757.67 564.86 756.53 567.82 756.06 570.99 748.88 571.79 745.23 573.13 745.23 575 745.23 577.18 750.47 578.4 756.33 579.03 758.52 589.08 767.48 596.63 778.18 596.63 790.51 596.63 800.55 586.6 800.55 574.26 800.55 569.89 799.28 565.81 797.11 562.36 797.59 562.28 798.05 562.19 798.49 562.11 799.37 562.94 800.54 563.46 801.85 563.46 804.54 563.46 806.74 561.27 806.74 558.57 806.74 555.87 804.55 553.68 801.85 553.68ZM751.81 576.86C748.34 576.19 746.75 575.43 746.75 575.01 746.75 574.77 748.39 573.4 755.91 572.53 755.86 573.11 755.83 573.69 755.83 574.28 755.83 575.38 755.91 576.45 756.07 577.51 754.32 577.31 752.9 577.08 751.81 576.87ZM778.21 553.41C784.79 553.41 790.66 556.48 794.49 561.25 790.05 561.83 784.48 562.14 778.54 562.14 770.95 562.14 765.53 561.65 762 561.16 765.83 556.43 771.67 553.4 778.21 553.4ZM753.97 558.92C754.13 558.38 757.11 557.11 764.89 556.32 763.14 557.62 761.59 559.16 760.29 560.9 756.11 560.21 754.11 559.41 753.97 558.92ZM799.08 574.27C799.08 585.78 789.72 595.14 778.21 595.14 768.4 595.14 760.17 588.33 757.95 579.19 760.69 579.43 763.46 579.55 765.84 579.59 766.11 583.69 769.53 586.94 773.69 586.94 777.85 586.94 781.57 583.4 781.57 579.06 781.57 574.72 778.03 571.18 773.69 571.18 769.67 571.18 766.36 574.2 765.88 578.09 762.65 578.04 759.9 577.88 757.65 577.67 757.47 576.56 757.35 575.43 757.35 574.28 757.35 569.93 758.69 565.89 760.98 562.54 765.75 563.25 771.95 563.65 778.54 563.65 785.13 563.65 790.88 563.28 795.52 562.63 797.77 565.96 799.08 569.97 799.08 574.28ZM767.31 579.06C767.31 575.54 770.17 572.68 773.69 572.68 777.21 572.68 780.07 575.54 780.07 579.06 780.07 582.58 777.21 585.44 773.69 585.44 770.17 585.44 767.31 582.58 767.31 579.06ZM796.21 561C794.87 559.18 793.25 557.58 791.43 556.24 793.61 556.44 795.58 556.7 797.28 557 797.11 557.5 796.99 558.03 796.99 558.58 796.99 559.37 797.2 560.11 797.54 560.78 797.11 560.86 796.67 560.93 796.21 561ZM801.88 561.97C800.01 561.97 798.49 560.45 798.49 558.58 798.49 556.71 800.01 555.19 801.88 555.19 803.75 555.19 805.27 556.71 805.27 558.58 805.27 560.45 803.75 561.97 801.88 561.97Z" fill="#0D274D"/></g></svg>