<svg width="80" height="80" xmlns="http://www.w3.org/2000/svg" xmlns:xlink="http://www.w3.org/1999/xlink" xml:space="preserve" overflow="hidden"><g transform="translate(-332 -195)"><path d="M372 204.54C357.08 204.54 344.45 215.21 341.97 229.92 341.68 231.65 341.54 233.35 341.54 235 341.54 251.8 355.21 265.46 372 265.46 375.86 265.46 379.66 264.72 383.3 263.27 383.45 263.23 383.53 263.2 383.6 263.16 392.5 259.48 399.19 251.76 401.54 242.5 402.16 240.07 402.47 237.54 402.47 235 402.47 220.39 392.06 207.81 377.72 205.08L377.68 205.08C375.78 204.72 373.88 204.54 372.01 204.54ZM372 263.97C356.03 263.97 343.04 250.98 343.04 235.01 343.04 233.65 343.16 232.24 343.41 230.59L343.43 230.47 343.53 230.4C352.75 223.71 360.61 220.23 367.55 219.77L367.9 219.75 367.85 220.1C367.42 222.91 367.67 225.81 368.58 228.71 370.91 236.16 377.79 240.93 388.47 242.52L388.74 242.56 388.71 242.83C388.16 248.41 386.15 254.8 382.72 261.83L382.67 261.93 382.57 261.97C379.16 263.3 375.61 263.98 372.01 263.98ZM384.75 261.02 385.09 260.26C387.96 253.96 389.67 248.15 390.17 243.01L390.2 242.72 390.49 242.75C392.48 242.96 394.52 243.07 396.54 243.07 397.33 243.07 398.16 243.03 398.97 243L399.83 242.96 399.71 243.34C397.46 250.84 392.4 256.98 385.48 260.62L384.74 261.01ZM396.57 241.56C394.48 241.56 392.47 241.46 390.57 241.25L390.3 241.22 390.3 240.95C390.57 233.76 388.35 228.01 383.7 223.86 379.73 220.32 375.17 218.41 370.14 218.18L369.77 218.16 369.88 217.81C371.08 213.96 373.65 210.33 377.75 206.72L377.86 206.63 378 206.66C391.31 209.47 400.97 221.39 400.97 234.99 400.97 237.06 400.74 239.16 400.28 241.23L400.23 241.44 400.01 241.44C398.84 241.51 397.69 241.54 396.57 241.54ZM388.82 241.04 388.5 240.99C378.53 239.47 372.13 235.06 370 228.25 369.12 225.43 368.9 222.64 369.36 219.96L369.4 219.72 369.65 219.72C374.53 219.85 378.92 221.62 382.7 224.99 386.97 228.8 389.04 234.09 388.83 240.71L388.83 241.03ZM343.83 228.33 344.03 227.58C347.4 214.89 358.9 206.03 372 206.03 373.04 206.03 374.14 206.1 375.36 206.24L375.96 206.31 375.52 206.73C371.79 210.3 369.35 214.08 368.28 217.97L368.22 218.17 368.01 218.17C361.23 218.49 353.31 221.76 344.46 227.88L343.82 228.32Z" fill="#0D274D"/></g></svg>