<svg width="81" height="81" xmlns="http://www.w3.org/2000/svg" xmlns:xlink="http://www.w3.org/1999/xlink" xml:space="preserve" overflow="hidden"><defs><clipPath id="clip0"><rect x="492" y="197" width="81" height="81"/></clipPath></defs><g clip-path="url(#clip0)" transform="translate(-492 -197)"><path d="M559.949 249.427C559.645 248.283 558.936 247.331 557.964 246.683 559.027 243.737 559.584 240.659 559.584 237.5 559.584 234.341 559.038 231.243 557.974 228.307 558.936 227.659 559.645 226.717 559.949 225.593 560.283 224.348 560.121 223.052 559.473 221.938 558.835 220.824 557.802 220.024 556.557 219.69 555.423 219.386 554.238 219.518 553.185 220.034 549.095 215.174 543.496 211.945 537.279 210.841 537.107 208.35 535.052 206.366 532.51 206.355L532.5 206.355C531.214 206.355 530.009 206.852 529.108 207.753 528.268 208.583 527.802 209.676 527.721 210.851 521.504 211.955 515.905 215.184 511.835 220.034 509.587 218.921 506.823 219.71 505.547 221.908 504.899 223.021 504.727 224.317 505.061 225.553 505.365 226.686 506.074 227.638 507.036 228.296 505.973 231.223 505.426 234.311 505.426 237.49 505.426 240.669 505.973 243.737 507.036 246.683 506.074 247.331 505.365 248.273 505.061 249.397 504.727 250.642 504.889 251.938 505.537 253.052 506.175 254.166 507.208 254.966 508.453 255.3 508.868 255.411 509.293 255.472 509.719 255.472 510.448 255.472 511.167 255.3 511.825 254.966 515.105 258.844 519.358 261.719 524.167 263.278L524.633 261.83C520.127 260.372 516.148 257.689 513.06 254.075 514.407 252.748 514.862 250.733 514.184 248.951L524.653 242.907 523.894 241.59 513.424 247.635C512.22 246.157 510.255 245.539 508.433 246.035 507.461 243.302 506.934 240.436 506.934 237.49 506.934 234.544 507.451 231.688 508.423 228.965 508.838 229.076 509.263 229.137 509.698 229.137 510.134 229.137 510.529 229.086 510.944 228.975 511.936 228.712 512.797 228.134 513.435 227.355L523.904 233.399 524.663 232.083 514.194 226.038C514.558 225.097 514.619 224.084 514.366 223.092 514.143 222.252 513.688 221.513 513.09 220.915 516.907 216.43 522.102 213.423 527.883 212.37 528.359 214.192 529.867 215.59 531.761 215.893L531.761 227.365 533.28 227.365 533.28 215.893C535.163 215.59 536.682 214.192 537.157 212.37 542.929 213.423 548.123 216.43 551.95 220.915 550.614 222.242 550.158 224.246 550.846 226.028L540.377 232.073 541.137 233.389 551.596 227.355C552.527 228.499 553.914 229.137 555.332 229.137 555.757 229.137 556.182 229.076 556.598 228.965 557.57 231.688 558.086 234.544 558.086 237.49 558.086 240.436 557.57 243.292 556.598 246.035 555.787 245.813 554.927 245.782 554.086 246.005 553.094 246.268 552.234 246.845 551.596 247.625L541.127 241.58 540.367 242.897 550.836 248.941C550.472 249.883 550.411 250.895 550.664 251.888 550.887 252.738 551.343 253.477 551.95 254.075 548.862 257.689 544.883 260.362 540.377 261.83L540.843 263.278C545.662 261.719 549.905 258.844 553.185 254.966 553.864 255.3 554.583 255.472 555.291 255.472 556.952 255.472 558.572 254.611 559.463 253.072 560.111 251.958 560.283 250.663 559.949 249.427ZM512.554 249.022C513.455 250.592 512.908 252.607 511.339 253.518 510.579 253.953 509.688 254.075 508.838 253.842 507.987 253.609 507.279 253.062 506.843 252.303 506.408 251.543 506.286 250.652 506.519 249.802 506.752 248.951 507.299 248.243 508.058 247.807 508.575 247.514 509.132 247.372 509.688 247.372 510.832 247.372 511.936 247.969 512.544 249.022ZM510.549 227.517C509.698 227.74 508.818 227.628 508.048 227.183 507.289 226.737 506.742 226.028 506.519 225.178 506.297 224.327 506.408 223.447 506.853 222.677 507.461 221.624 508.575 221.037 509.709 221.037 510.266 221.037 510.832 221.178 511.359 221.482 512.118 221.928 512.665 222.637 512.888 223.487 513.111 224.337 512.989 225.218 512.554 225.988 512.118 226.757 511.4 227.294 510.549 227.517ZM532.5 214.466 532.5 214.466C530.688 214.466 529.209 212.977 529.219 211.165 529.219 210.284 529.564 209.464 530.192 208.836 530.809 208.219 531.639 207.874 532.51 207.874L532.51 207.874C534.323 207.874 535.801 209.363 535.791 211.175 535.791 212.987 534.312 214.456 532.5 214.456ZM552.446 225.978C551.545 224.408 552.092 222.393 553.661 221.482 554.167 221.189 554.724 221.047 555.291 221.047 555.575 221.047 555.869 221.087 556.152 221.158 557.003 221.391 557.711 221.938 558.147 222.697 558.582 223.457 558.703 224.348 558.471 225.198 558.238 226.049 557.691 226.757 556.932 227.193 555.362 228.094 553.347 227.547 552.436 225.978ZM558.147 252.313C557.235 253.882 555.221 254.419 553.651 253.508 552.892 253.062 552.345 252.353 552.122 251.503 551.899 250.652 552.021 249.771 552.456 249.002 552.892 248.232 553.611 247.696 554.461 247.473 554.745 247.402 555.028 247.362 555.312 247.362 555.889 247.362 556.446 247.514 556.962 247.807 557.721 248.253 558.268 248.962 558.491 249.812 558.714 250.663 558.602 251.543 558.157 252.313Z" fill="#0D274D"/><path d="M536.55 234.716 535.791 234.716 535.791 233.956C535.791 232.144 534.312 230.666 532.5 230.666 530.688 230.666 529.209 232.144 529.209 233.956L529.209 234.716 528.45 234.716C528.035 234.716 527.691 235.06 527.691 235.475L527.691 241.55C527.691 241.965 528.035 242.309 528.45 242.309L536.55 242.309C536.965 242.309 537.309 241.965 537.309 241.55L537.309 235.475C537.309 235.06 536.965 234.716 536.55 234.716ZM530.728 233.956C530.728 232.984 531.528 232.184 532.5 232.184 533.472 232.184 534.272 232.984 534.272 233.956L534.272 234.716 530.728 234.716 530.728 233.956ZM535.791 240.791 529.209 240.791 529.209 236.234 535.791 236.234 535.791 240.791Z" fill="#0D274D"/><path d="M533.259 259.097 533.259 245.6 531.741 245.6 531.741 259.097C529.452 259.461 527.701 261.435 527.691 263.815 527.691 266.468 529.837 268.624 532.49 268.634L532.5 268.634C533.786 268.634 534.991 268.138 535.892 267.237 536.803 266.336 537.309 265.121 537.309 263.835 537.309 261.435 535.558 259.461 533.259 259.097ZM534.819 266.164C534.201 266.781 533.371 267.126 532.5 267.126L532.5 267.126C530.688 267.126 529.209 265.637 529.219 263.825 529.219 262.013 530.698 260.544 532.51 260.544L532.51 260.544C534.323 260.544 535.801 262.033 535.791 263.845 535.791 264.726 535.446 265.546 534.819 266.174Z" fill="#0D274D"/><text fill="#0D274D" font-family="Arial,Arial_MSFontService,sans-serif" font-weight="400" font-size="6" transform="matrix(1.0125 0 0 1.0125 492 179)">SASE </text><text fill="#0D274D" font-family="Arial,Arial_MSFontService,sans-serif" font-weight="400" font-size="6" transform="matrix(1.0125 0 0 1.0125 510.225 179)">(</text><text fill="#0D274D" font-family="Arial,Arial_MSFontService,sans-serif" font-weight="400" font-size="6" transform="matrix(1.0125 0 0 1.0125 507.714 179)">S</text><text fill="#0D274D" font-family="Arial,Arial_MSFontService,sans-serif" font-weight="400" font-size="6" transform="matrix(1.0125 0 0 1.0125 510.741 179)">ecu</text><text fill="#0D274D" font-family="Arial,Arial_MSFontService,sans-serif" font-weight="400" font-size="6" transform="matrix(1.0125 0 0 1.0125 519.854 179)">r</text><text fill="#0D274D" font-family="Arial,Arial_MSFontService,sans-serif" font-weight="400" font-size="6" transform="matrix(1.0125 0 0 1.0125 521.778 179)">e </text><text fill="#0D274D" font-family="Arial,Arial_MSFontService,sans-serif" font-weight="400" font-size="6" transform="matrix(1.0125 0 0 1.0125 526.111 179)">A</text><text fill="#0D274D" font-family="Arial,Arial_MSFontService,sans-serif" font-weight="400" font-size="6" transform="matrix(1.0125 0 0 1.0125 529.756 179)">cc</text><text fill="#0D274D" font-family="Arial,Arial_MSFontService,sans-serif" font-weight="400" font-size="6" transform="matrix(1.0125 0 0 1.0125 535.122 179)">ess </text><text fill="#0D274D" font-family="Arial,Arial_MSFontService,sans-serif" font-weight="400" font-size="6" transform="matrix(1.0125 0 0 1.0125 544.265 179)">S</text><text fill="#0D274D" font-family="Arial,Arial_MSFontService,sans-serif" font-weight="400" font-size="6" transform="matrix(1.0125 0 0 1.0125 547.293 179)">e</text><text fill="#0D274D" font-family="Arial,Arial_MSFontService,sans-serif" font-weight="400" font-size="6" transform="matrix(1.0125 0 0 1.0125 550.34 179)">r</text><text fill="#0D274D" font-family="Arial,Arial_MSFontService,sans-serif" font-weight="400" font-size="6" transform="matrix(1.0125 0 0 1.0125 552.477 179)">v</text><text fill="#0D274D" font-family="Arial,Arial_MSFontService,sans-serif" font-weight="400" font-size="6" transform="matrix(1.0125 0 0 1.0125 555.342 179)">er </text><text fill="#0D274D" font-family="Arial,Arial_MSFontService,sans-serif" font-weight="400" font-size="6" transform="matrix(1.0125 0 0 1.0125 492 187)">E</text><text fill="#0D274D" font-family="Arial,Arial_MSFontService,sans-serif" font-weight="400" font-size="6" transform="matrix(1.0125 0 0 1.0125 494.967 187)">dge</text><text fill="#0D274D" font-family="Arial,Arial_MSFontService,sans-serif" font-weight="400" font-size="6" transform="matrix(1.0125 0 0 1.0125 504.079 187)">)</text></g></svg>